<svg xmlns="http://www.w3.org/2000/svg" width="89.731" height="59.277" viewBox="0 0 89.731 59.277"><g transform="translate(0.5 -54.609)"><g transform="translate(0 55.109)"><path d="M88.683,95.413a82.824,82.824,0,0,0-2.431-16.025A61.5,61.5,0,0,0,81.278,65.9c-7.736-13.594-16.135-11.494-26.192-8.841a71.988,71.988,0,0,1-10.168,1.989H43.813a71.988,71.988,0,0,1-10.168-1.989c-10.057-2.542-18.456-4.752-26.192,8.952A56.341,56.341,0,0,0,2.479,79.5,82.824,82.824,0,0,0,.048,95.523c-.221,5.636.332,9.725,1.547,12.6A8.376,8.376,0,0,0,6.9,113.1a10.806,10.806,0,0,0,7.073-.774c4.31-1.768,9.283-5.526,14.146-10.057,3.426-3.315,9.836-4.973,16.246-4.973s12.82,1.658,16.246,4.973c4.863,4.531,9.836,8.289,14.146,10.057a11.561,11.561,0,0,0,7.073.774,8.259,8.259,0,0,0,5.3-5.084C88.351,105.249,88.9,101.16,88.683,95.413Zm-5.3,11.052a4.383,4.383,0,0,1-2.652,2.763,7.632,7.632,0,0,1-4.531-.553c-3.868-1.547-8.4-4.973-12.82-9.173-4.2-4.2-11.6-6.3-19.009-6.3s-14.809,2.1-19.119,6.078c-4.531,4.2-9.062,7.736-12.82,9.173-1.768.663-3.316.995-4.531.553a4.383,4.383,0,0,1-2.652-2.763c-.884-2.1-1.326-5.526-1.105-10.61A76.232,76.232,0,0,1,6.458,80.382,52.734,52.734,0,0,1,11.1,67.894c6.078-10.941,13.151-9.173,21.551-6.963a64.831,64.831,0,0,0,10.831,2.1h1.658a64.029,64.029,0,0,0,10.941-2.1c8.4-2.1,15.472-3.979,21.551,6.963a50.96,50.96,0,0,1,4.642,12.488,83.649,83.649,0,0,1,2.321,15.251C84.814,100.717,84.372,104.143,83.378,106.464Z" transform="translate(0 -55.109)"/><path d="M9.207,113.886a9.569,9.569,0,0,1-2.434-.308l-.01,0a8.888,8.888,0,0,1-5.622-5.246l-.006-.014C-.152,105.276-.67,101.085-.452,95.5A83.834,83.834,0,0,1,1.994,79.38a57.013,57.013,0,0,1,5.02-13.6l0-.006C9.335,61.665,11.8,58.8,14.556,57a14.558,14.558,0,0,1,8.2-2.336c3.436,0,7.034.91,10.843,1.873l.163.041.862.209a64.825,64.825,0,0,0,9.209,1.766h1.058A64.823,64.823,0,0,0,54.1,56.787l.859-.208c3.671-.968,7.468-1.969,11.022-1.969a14.567,14.567,0,0,1,8.2,2.337c2.751,1.789,5.215,4.639,7.532,8.711l0,.008a61.3,61.3,0,0,1,5.018,13.6v0a83.831,83.831,0,0,1,2.446,16.124c.219,5.7-.3,9.891-1.588,12.819a8.788,8.788,0,0,1-5.62,5.364l-.016,0a8.957,8.957,0,0,1-2.277.283h0a14.144,14.144,0,0,1-5.105-1.074l-.008,0c-4.031-1.654-8.841-5.07-14.3-10.154l-.007-.006c-3.08-2.981-9.172-4.833-15.9-4.833s-12.818,1.852-15.9,4.833l-.007.006c-5.454,5.082-10.262,8.5-14.293,10.152A12.461,12.461,0,0,1,9.207,113.886Zm-2.174-1.273a8.57,8.57,0,0,0,2.174.273,11.473,11.473,0,0,0,4.567-1.023l.01,0c3.863-1.585,8.7-5.028,13.991-9.957a17.412,17.412,0,0,1,7.208-3.847,35.469,35.469,0,0,1,18.765,0,17.412,17.412,0,0,1,7.208,3.847c5.289,4.927,10.125,8.37,13.988,9.955a13.155,13.155,0,0,0,4.737,1h0a7.962,7.962,0,0,0,2.014-.248,7.836,7.836,0,0,0,4.98-4.8l0-.007c1.226-2.787,1.718-6.835,1.505-12.378a82.8,82.8,0,0,0-2.416-15.92,60.342,60.342,0,0,0-4.926-13.364c-4.149-7.288-8.731-10.538-14.856-10.538-3.426,0-7.16.985-10.772,1.937l-.01,0-.863.209a65.432,65.432,0,0,1-9.375,1.792l-.047,0-1.152,0a65.434,65.434,0,0,1-9.375-1.792l-.863-.209-.171-.043a45.009,45.009,0,0,0-10.6-1.842c-6.147,0-10.732,3.267-14.869,10.594A56,56,0,0,0,2.966,79.614v0A82.8,82.8,0,0,0,.548,95.545c-.213,5.425.28,9.474,1.505,12.376A7.934,7.934,0,0,0,7.032,112.613ZM79.5,109.88a10.147,10.147,0,0,1-3.486-.737l-.01,0c-3.634-1.454-8.122-4.661-12.979-9.275l-.009-.009C59.168,96,52.194,93.7,44.365,93.7c-7.726,0-14.747,2.223-18.78,5.946-5.326,4.936-9.572,7.969-12.981,9.273a10.108,10.108,0,0,1-3.471.787,4.128,4.128,0,0,1-1.4-.226,4.848,4.848,0,0,1-2.955-3.041c-.972-2.309-1.357-5.951-1.145-10.828A76.855,76.855,0,0,1,5.974,80.256a52.54,52.54,0,0,1,4.691-12.609,18.919,18.919,0,0,1,6.013-6.986,12.042,12.042,0,0,1,6.732-1.887,38.372,38.372,0,0,1,9.368,1.673A64.135,64.135,0,0,0,43.5,62.531h1.615a63.431,63.431,0,0,0,10.837-2.084l.223-.056a39.077,39.077,0,0,1,9.168-1.569,12.069,12.069,0,0,1,6.717,1.866,18.764,18.764,0,0,1,6.005,6.962,51.12,51.12,0,0,1,4.69,12.61v0a84.332,84.332,0,0,1,2.334,15.345c.216,4.961-.195,8.576-1.256,11.05a4.841,4.841,0,0,1-2.968,3.045l-.012,0A5.151,5.151,0,0,1,79.5,109.88Zm-3.13-1.671a9.168,9.168,0,0,0,3.13.671,4.161,4.161,0,0,0,1.083-.133,3.922,3.922,0,0,0,2.331-2.479c1-2.334,1.385-5.8,1.176-10.612A83.319,83.319,0,0,0,81.787,80.5,50.145,50.145,0,0,0,77.2,68.14c-3.2-5.754-6.85-8.318-11.85-8.318a38.393,38.393,0,0,0-8.925,1.539l-.219.055A64.156,64.156,0,0,1,45.18,63.529l-.042,0-1.7,0a64.882,64.882,0,0,1-10.913-2.114,37.68,37.68,0,0,0-9.116-1.641c-5,0-8.66,2.579-11.873,8.362A51.583,51.583,0,0,0,6.942,80.506,75.825,75.825,0,0,0,4.637,95.657c-.205,4.726.153,8.223,1.067,10.392a3.916,3.916,0,0,0,2.335,2.478l.027.009a3.084,3.084,0,0,0,1.068.171,9.188,9.188,0,0,0,3.116-.722c3.284-1.256,7.425-4.223,12.656-9.071A22.439,22.439,0,0,1,33.5,94.272,37.383,37.383,0,0,1,44.365,92.7c8.085,0,15.321,2.408,19.358,6.441C68.485,103.667,72.859,106.8,76.375,108.208Z" transform="translate(0 -55.109)"/></g><g transform="translate(11.431 66.126)"><path d="M64.139,102.717a6.715,6.715,0,0,0-3.979-1.879,6.289,6.289,0,0,0-1.768-3.868l-.111-.111a6.26,6.26,0,0,0-4.531-1.879A6.526,6.526,0,0,0,49.22,96.86a6.424,6.424,0,0,0-1.879,3.979,6.584,6.584,0,0,0-3.979,1.768l-.111.111a6.26,6.26,0,0,0-1.879,4.531,6.525,6.525,0,0,0,1.879,4.531,6.161,6.161,0,0,0,4.089,1.879,5.9,5.9,0,0,0,1.879,3.979,6.26,6.26,0,0,0,4.531,1.879,6.525,6.525,0,0,0,4.531-1.879,6.715,6.715,0,0,0,1.879-3.979,5.9,5.9,0,0,0,3.979-1.879,6.259,6.259,0,0,0,1.879-4.531A6.525,6.525,0,0,0,64.139,102.717Zm-2.763,6.189a2.249,2.249,0,0,1-1.658.663H58.172a2.1,2.1,0,0,0-2.1,2.1v1.437a2.321,2.321,0,1,1-4.642,0v-1.547a2.1,2.1,0,0,0-2.1-2.1H47.783a2.266,2.266,0,0,1-1.658-3.868l.111-.111a2.641,2.641,0,0,1,1.547-.553H49.33a2.1,2.1,0,0,0,2.1-2.1V101.28a2.345,2.345,0,0,1,3.979-1.658l.111.111a2.641,2.641,0,0,1,.553,1.547v1.547a2.1,2.1,0,0,0,2.1,2.1h1.547a2.345,2.345,0,0,1,1.658,3.979Z" transform="translate(-41.373 -94.981)"/><path d="M53.751,94.481a6.773,6.773,0,0,1,4.885,2.025l.111.111a6.834,6.834,0,0,1,1.867,3.768,7.39,7.39,0,0,1,3.861,1.961l.019.018a7.053,7.053,0,0,1,2.025,4.885,6.773,6.773,0,0,1-2.016,4.876,6.3,6.3,0,0,1-3.888,1.991,7.392,7.392,0,0,1-1.96,3.857l-.018.019a7.053,7.053,0,0,1-4.885,2.025A6.772,6.772,0,0,1,48.875,118a6.3,6.3,0,0,1-1.99-3.882,6.614,6.614,0,0,1-3.987-1.984,7.053,7.053,0,0,1-2.025-4.885,6.773,6.773,0,0,1,2.025-4.885l.13-.129a7.123,7.123,0,0,1,3.86-1.853,6.97,6.97,0,0,1,1.979-3.876A7.053,7.053,0,0,1,53.751,94.481Zm10.044,8.6a6.2,6.2,0,0,0-3.67-1.743l-.43-.031-.033-.43a5.791,5.791,0,0,0-1.623-3.553l-.111-.111a5.793,5.793,0,0,0-4.178-1.732,6.032,6.032,0,0,0-4.178,1.732,5.882,5.882,0,0,0-1.734,3.661l-.031.432-.432.031a6.075,6.075,0,0,0-3.67,1.633l-.1.1a5.793,5.793,0,0,0-1.732,4.178,6.032,6.032,0,0,0,1.732,4.178,5.667,5.667,0,0,0,3.769,1.733l.434.029.031.434a5.362,5.362,0,0,0,1.715,3.643l.019.018a5.793,5.793,0,0,0,4.178,1.732,6.033,6.033,0,0,0,4.168-1.723,6.2,6.2,0,0,0,1.743-3.67l.031-.432.432-.031a5.362,5.362,0,0,0,3.643-1.715l.018-.019a5.793,5.793,0,0,0,1.732-4.178A6.033,6.033,0,0,0,63.8,103.08ZM53.751,98.46a2.742,2.742,0,0,1,2.011.81l.136.136.021.028a3.124,3.124,0,0,1,.653,1.847v1.547a1.6,1.6,0,0,0,1.6,1.6h1.547a2.821,2.821,0,1,1,0,5.642H58.172a1.6,1.6,0,0,0-1.6,1.6v1.437a2.821,2.821,0,1,1-5.642,0v-1.547a1.6,1.6,0,0,0-1.6-1.6H47.783a2.766,2.766,0,0,1-2.011-4.722l.136-.136.028-.021a3.124,3.124,0,0,1,1.847-.653H49.33a1.6,1.6,0,0,0,1.6-1.6V101.28a2.766,2.766,0,0,1,2.821-2.821Zm1.388,1.6-.084-.084a1.821,1.821,0,0,0-3.125,1.3v1.547a2.6,2.6,0,0,1-2.6,2.6H47.783a2.141,2.141,0,0,0-1.22.432l-.084.084a1.766,1.766,0,0,0,1.3,3.015H49.33a2.6,2.6,0,0,1,2.6,2.6v1.547a1.821,1.821,0,1,0,3.642,0v-1.437a2.6,2.6,0,0,1,2.6-2.6h1.547a1.821,1.821,0,1,0,0-3.642H58.172a2.6,2.6,0,0,1-2.6-2.6V101.28A2.141,2.141,0,0,0,55.139,100.06Z" transform="translate(-41.373 -94.981)"/></g><g transform="translate(59.727 66.678)"><g transform="translate(0 0)"><circle cx="3.868" cy="3.868" r="3.868"/><path d="M3.868-.5A4.368,4.368,0,1,1-.5,3.868,4.373,4.373,0,0,1,3.868-.5Zm0,7.736A3.368,3.368,0,1,0,.5,3.868,3.372,3.372,0,0,0,3.868,7.236Z"/></g></g><g transform="translate(59.727 82.372)"><circle cx="3.868" cy="3.868" r="3.868"/><path d="M3.868-.5A4.368,4.368,0,1,1-.5,3.868,4.373,4.373,0,0,1,3.868-.5Zm0,7.736A3.368,3.368,0,1,0,.5,3.868,3.372,3.372,0,0,0,3.868,7.236Z"/></g><g transform="translate(51.88 74.525)"><g transform="translate(0 0)"><circle cx="3.868" cy="3.868" r="3.868"/><path d="M3.868-.5A4.368,4.368,0,1,1-.5,3.868,4.373,4.373,0,0,1,3.868-.5Zm0,7.736A3.368,3.368,0,1,0,.5,3.868,3.372,3.372,0,0,0,3.868,7.236Z"/></g></g><g transform="translate(67.574 74.525)"><g transform="translate(0 0)"><circle cx="3.868" cy="3.868" r="3.868"/><path d="M3.868-.5A4.368,4.368,0,1,1-.5,3.868,4.373,4.373,0,0,1,3.868-.5Zm0,7.736A3.368,3.368,0,1,0,.5,3.868,3.372,3.372,0,0,0,3.868,7.236Z"/></g></g></g></svg>