<svg xmlns="http://www.w3.org/2000/svg" width="20" height="20" viewBox="0 0 20 20">
  <path id="パス_7" data-name="パス 7" d="M18.116,1.884A6.442,6.442,0,0,0,7.431,8.426L.173,15.685A.585.585,0,0,0,0,16.1v3.315A.586.586,0,0,0,.587,20H3.9a.585.585,0,0,0,.414-.172L5.145,19a.586.586,0,0,0,.168-.482l-.1-.89,1.234-.116a.585.585,0,0,0,.528-.528l.116-1.234.89.1a.577.577,0,0,0,.457-.144.587.587,0,0,0,.2-.438V14.179H9.7a.585.585,0,0,0,.414-.172l1.5-1.483A6.346,6.346,0,0,0,18.116,11,6.453,6.453,0,0,0,18.116,1.884ZM16.459,6.028a1.758,1.758,0,1,1,0-2.486A1.759,1.759,0,0,1,16.459,6.028Z" transform="translate(-0.001 0)"/>
</svg>
