<svg xmlns="http://www.w3.org/2000/svg" width="73.545" height="61.767" viewBox="0 0 73.545 61.767"><g transform="translate(0 -40.998)"><path d="M75.2,265a10.2,10.2,0,1,0,10.2,10.2A10.21,10.21,0,0,0,75.2,265Zm0,16.088a5.889,5.889,0,1,1,5.889-5.889A5.9,5.9,0,0,1,75.2,281.09Z" transform="translate(-55.663 -191.828)"/><path d="M282.137,281H259.155a2.155,2.155,0,0,0,0,4.309h22.983a2.155,2.155,0,0,0,0-4.309Z" transform="translate(-220.084 -205.53)"/><path d="M282.137,361H259.155a2.155,2.155,0,0,0,0,4.309h22.983a2.155,2.155,0,0,0,0-4.309Z" transform="translate(-220.084 -274.038)"/><path d="M64.926,50.192h-1.4l-29.568-9.1a2.155,2.155,0,0,0-1.267,4.119l16.182,4.979H8.619A8.628,8.628,0,0,0,0,58.81V94.146a8.628,8.628,0,0,0,8.619,8.618H64.926a8.628,8.628,0,0,0,8.619-8.618V58.81A8.628,8.628,0,0,0,64.926,50.192ZM4.309,58.81A4.314,4.314,0,0,1,8.619,54.5H64.926a4.314,4.314,0,0,1,4.309,4.309v5.171H21.69V61.539a2.155,2.155,0,1,0-4.309,0v2.442H4.309ZM64.926,98.455H8.619a4.314,4.314,0,0,1-4.309-4.309V68.29H69.235V94.146A4.314,4.314,0,0,1,64.926,98.455Z"/></g></svg>