<svg xmlns="http://www.w3.org/2000/svg" width="89.349" height="86.483" viewBox="0 0 89.349 86.483"><g transform="translate(-669.75 -2290.416)"><path d="M95.416,89.086H84.668a5.021,5.021,0,0,0,5.016-5.016V82.637a5.021,5.021,0,0,0-5.016-5.016H81.184l-3.9-17.96a8.637,8.637,0,0,0-8.564-7.835h-7.7V50.393a1.446,1.446,0,0,0-.088-.493,10.723,10.723,0,0,0,2.737-5.24h.217a4.3,4.3,0,0,0,4.3-4.3V31.047A15.064,15.064,0,0,0,53.141,16H51.708A15.064,15.064,0,0,0,36.661,31.047v9.315a4.3,4.3,0,0,0,4.3,4.3h.217a10.722,10.722,0,0,0,2.737,5.24,1.446,1.446,0,0,0-.088.493v1.433h-7.7a8.637,8.637,0,0,0-8.564,7.835L24.288,74.755H23.047a4.93,4.93,0,0,0-1.191.145l-3.975-7.952a1.434,1.434,0,1,0-2.565,1.283l4.063,8.124a5,5,0,0,0-1.347,3.416v4.3a5.021,5.021,0,0,0,5.016,5.016H9.433A1.433,1.433,0,0,0,8,90.519v5.732a1.433,1.433,0,0,0,1.433,1.433h1.433v2.866a1.433,1.433,0,0,0,1.433,1.433H92.55a1.433,1.433,0,0,0,1.433-1.433V97.684h1.433a1.433,1.433,0,0,0,1.433-1.433V90.519A1.433,1.433,0,0,0,95.416,89.086Zm-15.047-8.6h4.3a2.151,2.151,0,0,1,2.15,2.15V84.07a2.151,2.151,0,0,1-2.15,2.15h-4.3a2.151,2.151,0,0,1-2.15-2.15V82.637a2.151,2.151,0,0,1,2.15-2.15ZM65.322,40.362a1.435,1.435,0,0,1-1.433,1.433V36.063h1.433ZM40.96,41.795a1.435,1.435,0,0,1-1.433-1.433v-4.3H40.96Zm-1.433-8.6v-2.15A12.194,12.194,0,0,1,51.708,18.866h1.433A12.194,12.194,0,0,1,65.322,31.047V33.2H63.889V32.48c0-.274-.011-.548-.03-.815a1.433,1.433,0,0,0-1.96-1.222C55.07,33.163,42.519,33.2,42.393,33.2Zm4.3,9.315v-6.47c3.242-.081,11.26-.462,17.2-2.262v8.733a7.891,7.891,0,0,1-7.882,7.882H51.708a7.891,7.891,0,0,1-7.882-7.882Zm14.331,9.5v1.247c0,2.37-2.571,4.3-5.732,4.3s-5.732-1.929-5.732-4.3V52.013a10.668,10.668,0,0,0,5.016,1.247h1.433a10.668,10.668,0,0,0,5.016-1.247ZM30.388,60.179a1.424,1.424,0,0,0,.029-.2,5.757,5.757,0,0,1,5.714-5.292H44c.8,3.267,4.272,5.732,8.425,5.732s7.626-2.465,8.425-5.732h7.869a5.757,5.757,0,0,1,5.714,5.292,1.424,1.424,0,0,0,.029.2l3.884,17.87a5.022,5.022,0,0,0-2.991,4.588V84.07a5.021,5.021,0,0,0,5.016,5.016H73.92V66.873A5.021,5.021,0,0,0,68.9,61.858H35.945a5.021,5.021,0,0,0-5.016,5.016V89.086H24.48A5.021,5.021,0,0,0,29.5,84.07v-4.3a5.013,5.013,0,0,0-2.431-4.3Zm40.666,6.694V89.086H33.795V66.873a2.151,2.151,0,0,1,2.15-2.15H68.9A2.151,2.151,0,0,1,71.054,66.873ZM20.9,84.07v-4.3a2.151,2.151,0,0,1,2.15-2.15H24.48a2.151,2.151,0,0,1,2.15,2.15v4.3a2.151,2.151,0,0,1-2.15,2.15H23.047A2.151,2.151,0,0,1,20.9,84.07ZM93.983,94.818H10.866V91.952H93.983Z" transform="translate(662 2274.666)"/><path d="M92.55,102.233H12.3a1.685,1.685,0,0,1-1.683-1.683V97.934H9.433A1.685,1.685,0,0,1,7.75,96.251V90.519a1.685,1.685,0,0,1,1.683-1.683H20.814a5.281,5.281,0,0,1-3.033-4.765v-4.3a5.232,5.232,0,0,1,1.3-3.457l-3.986-7.971A1.684,1.684,0,1,1,18.1,66.837l3.887,7.776a5.185,5.185,0,0,1,1.051-.108h1.044l3.232-14.882a8.887,8.887,0,0,1,8.811-8.047h7.447V50.393a1.694,1.694,0,0,1,.056-.428,10.961,10.961,0,0,1-2.657-5.054H40.96a4.563,4.563,0,0,1-4.549-4.549V31.047a15.314,15.314,0,0,1,15.3-15.3h1.433a15.314,15.314,0,0,1,15.3,15.3v9.315a4.563,4.563,0,0,1-4.549,4.549h-.015a10.961,10.961,0,0,1-2.657,5.054,1.691,1.691,0,0,1,.056.427v1.184h7.445a8.887,8.887,0,0,1,8.812,8.047l3.856,17.748h3.283a5.28,5.28,0,0,1,5.266,5.265V84.07A5.281,5.281,0,0,1,86.9,88.836h8.515A1.685,1.685,0,0,1,97.1,90.519v5.732a1.685,1.685,0,0,1-1.683,1.683H94.233v2.616A1.685,1.685,0,0,1,92.55,102.233ZM9.433,89.336A1.184,1.184,0,0,0,8.25,90.519v5.732a1.184,1.184,0,0,0,1.183,1.183h1.683v3.116a1.184,1.184,0,0,0,1.183,1.183H92.55a1.184,1.184,0,0,0,1.183-1.183V97.434h1.683A1.184,1.184,0,0,0,96.6,96.251V90.519a1.184,1.184,0,0,0-1.183-1.183H84.668v-.5a4.779,4.779,0,0,0,4.766-4.766V82.637a4.779,4.779,0,0,0-4.766-4.766H80.983L77.034,59.685a8.356,8.356,0,0,0-8.316-7.608H60.773V50.393a1.192,1.192,0,0,0-.073-.407l-.053-.146.107-.112a10.462,10.462,0,0,0,2.673-5.117l.041-.2h.421a4.062,4.062,0,0,0,4.049-4.049V31.047a14.837,14.837,0,0,0-14.8-14.8H51.708a14.837,14.837,0,0,0-14.8,14.8v9.315a4.062,4.062,0,0,0,4.049,4.049h.42l.041.2A10.462,10.462,0,0,0,44.1,49.728l.107.112-.053.146a1.193,1.193,0,0,0-.073.407v1.682H36.131a8.356,8.356,0,0,0-8.315,7.608l0,.03L24.49,75.005H23.047a4.692,4.692,0,0,0-1.131.138l-.194.048L17.657,67.06a1.184,1.184,0,0,0-2.118,1.059L19.68,76.4l-.119.127a4.735,4.735,0,0,0-1.28,3.245v4.3a4.779,4.779,0,0,0,4.766,4.766v.5Zm84.8,5.732H10.616V91.7H94.233Zm-83.117-.5H93.733V92.2H11.116Zm69.253-5.232h-6.7V66.873A4.779,4.779,0,0,0,68.9,62.108H35.945a4.779,4.779,0,0,0-4.766,4.766V89.336h-6.7v-.5a4.779,4.779,0,0,0,4.766-4.766v-4.3a4.788,4.788,0,0,0-2.31-4.081l-.154-.092,3.361-15.471a1.179,1.179,0,0,0,.024-.161,6.007,6.007,0,0,1,5.963-5.522H44.2l.047.191c.785,3.211,4.226,5.542,8.182,5.542s7.4-2.331,8.182-5.542l.047-.191h8.065a6.007,6.007,0,0,1,5.963,5.521,1.181,1.181,0,0,0,.024.162L78.633,78.2l-.187.082A4.775,4.775,0,0,0,75.6,82.637V84.07a4.779,4.779,0,0,0,4.766,4.766Zm-6.2-.5h3.966A5.281,5.281,0,0,1,75.1,84.07V82.637a5.276,5.276,0,0,1,2.955-4.73L74.217,60.232A1.678,1.678,0,0,1,74.184,60a5.474,5.474,0,0,0-5.466-5.061H61.042a7.4,7.4,0,0,1-3.006,4.047,10.187,10.187,0,0,1-11.223,0,7.4,7.4,0,0,1-3.006-4.047H36.131A5.474,5.474,0,0,0,30.666,60a1.675,1.675,0,0,1-.034.228L27.347,75.357a5.292,5.292,0,0,1,2.4,4.414v4.3a5.281,5.281,0,0,1-3.033,4.766h3.966V66.873a5.28,5.28,0,0,1,5.265-5.266H68.9a5.28,5.28,0,0,1,5.266,5.265Zm-2.866.5H33.545V66.873a2.4,2.4,0,0,1,2.4-2.4H68.9a2.4,2.4,0,0,1,2.4,2.4Zm-37.259-.5H70.8V66.873a1.9,1.9,0,0,0-1.9-1.9H35.945a1.9,1.9,0,0,0-1.9,1.9ZM84.669,86.47h-4.3a2.4,2.4,0,0,1-2.4-2.4V82.637a2.4,2.4,0,0,1,2.4-2.4h4.3a2.4,2.4,0,0,1,2.4,2.4V84.07A2.4,2.4,0,0,1,84.669,86.47Zm-4.3-5.732a1.9,1.9,0,0,0-1.9,1.9V84.07a1.9,1.9,0,0,0,1.9,1.9h4.3a1.9,1.9,0,0,0,1.9-1.9V82.637a1.9,1.9,0,0,0-1.9-1.9ZM24.48,86.47H23.047a2.4,2.4,0,0,1-2.4-2.4v-4.3a2.4,2.4,0,0,1,2.4-2.4H24.48a2.4,2.4,0,0,1,2.4,2.4v4.3A2.4,2.4,0,0,1,24.48,86.47Zm-1.433-8.6a1.9,1.9,0,0,0-1.9,1.9v4.3a1.9,1.9,0,0,0,1.9,1.9H24.48a1.9,1.9,0,0,0,1.9-1.9v-4.3a1.9,1.9,0,0,0-1.9-1.9ZM52.425,57.809c-3.3,0-5.982-2.041-5.982-4.549V51.6l.367.2A10.455,10.455,0,0,0,51.7,53.009h1.455a10.455,10.455,0,0,0,4.887-1.218l.367-.2v1.663C58.407,55.768,55.723,57.809,52.425,57.809ZM46.942,52.42v.84c0,2.233,2.459,4.049,5.482,4.049s5.482-1.816,5.482-4.049v-.84a10.961,10.961,0,0,1-4.755,1.09H51.7A10.961,10.961,0,0,1,46.942,52.42Zm6.2-1.776H51.708a8.141,8.141,0,0,1-8.132-8.132V35.8l.244-.006c3.179-.079,11.211-.457,17.13-2.252l.323-.1v9.07a8.141,8.141,0,0,1-8.132,8.132ZM44.076,36.285v6.227a7.653,7.653,0,0,0,7.632,7.632h1.433a7.653,7.653,0,0,0,7.632-7.632v-8.4C54.978,35.8,47.365,36.194,44.076,36.285Zm19.563,5.761V35.813h1.933v4.549a1.688,1.688,0,0,1-1.683,1.683Zm.5-5.733v5.205a1.188,1.188,0,0,0,.933-1.156V36.313ZM41.21,42.045h-.25a1.688,1.688,0,0,1-1.683-1.683v-4.55H41.21Zm-1.433-5.733v4.049a1.188,1.188,0,0,0,.933,1.156V36.313Zm25.795-2.866H63.639V32.48c0-.261-.01-.529-.03-.8a1.183,1.183,0,0,0-1.618-1.008c-6.879,2.739-19.472,2.771-19.6,2.771H39.277v-2.4A12.444,12.444,0,0,1,51.708,18.616h1.433A12.444,12.444,0,0,1,65.572,31.047Zm-1.433-.5h.933v-1.9A11.962,11.962,0,0,0,53.141,19.116H51.708A11.962,11.962,0,0,0,39.777,31.047v1.9h2.616c.125,0,12.622-.031,19.413-2.736a1.683,1.683,0,0,1,2.3,1.435c.021.28.031.561.031.834Z" transform="translate(662 2274.666)"/><path d="M229.732,336a5.732,5.732,0,1,0,5.732,5.732A5.732,5.732,0,0,0,229.732,336Zm0,8.6a2.866,2.866,0,1,1,2.866-2.866A2.866,2.866,0,0,1,229.732,344.6Z" transform="translate(484.692 2011.988)"/><path d="M229.732,335.75h0a5.982,5.982,0,1,1-5.982,5.982A6,6,0,0,1,229.732,335.75Zm0,11.464a5.482,5.482,0,1,0-5.482-5.482A5.488,5.488,0,0,0,229.732,347.214Zm0-8.6a3.116,3.116,0,0,1,0,6.232h0a3.116,3.116,0,1,1,0-6.232Zm0,5.732a2.616,2.616,0,1,0-2.616-2.616,2.624,2.624,0,0,0,2.616,2.616Z" transform="translate(484.692 2011.988)"/><ellipse cx="1" cy="1.5" rx="1" ry="1.5" transform="translate(708.849 2311.882)"/><path d="M1-.25c.7,0,1.25.769,1.25,1.75S1.7,3.25,1,3.25-.25,2.481-.25,1.5.3-.25,1-.25Zm0,3c.407,0,.75-.572.75-1.25S1.407.25,1,.25.25.822.25,1.5.593,2.75,1,2.75Z" transform="translate(708.849 2311.882)"/><ellipse cx="1" cy="1.5" rx="1" ry="1.5" transform="translate(717.849 2311.882)"/><path d="M1-.25c.7,0,1.25.769,1.25,1.75S1.7,3.25,1,3.25-.25,2.481-.25,1.5.3-.25,1-.25Zm0,3c.407,0,.75-.572.75-1.25S1.407.25,1,.25.25.822.25,1.5.593,2.75,1,2.75Z" transform="translate(717.849 2311.882)"/><path d="M241.433,178.866H244.3a1.433,1.433,0,1,0,0-2.866h-2.866a1.433,1.433,0,1,0,0,2.866Z" transform="translate(471.559 2143.327)"/><path d="M244.3,179.116h-2.866a1.683,1.683,0,1,1,0-3.366H244.3a1.683,1.683,0,1,1,0,3.366Zm-2.866-2.866a1.183,1.183,0,1,0,0,2.366H244.3a1.183,1.183,0,1,0,0-2.366Z" transform="translate(471.559 2143.327)"/></g></svg>